<svg width="612" height="576" viewBox="0 0 612 576" fill="none" xmlns="http://www.w3.org/2000/svg">
<g filter="url(#filter0_i_1_54)">
<path d="M38.6209 576V156.338C64.2362 200.541 127.891 289.595 177.588 292.182C239.708 295.416 239.248 264.69 351.066 74.6692C440.52 -77.3473 575.621 32.5 575.621 156.338V576H38.6209Z" fill="url(#paint0_linear_1_54)" fill-opacity="0.8"/>
</g>
<path d="M464.308 277.476C352.412 201.955 228.881 246.009 181.103 277.476V347.628C294.385 298.089 417.108 326.987 464.308 347.628V277.476Z" fill="#CDCDCD" stroke="url(#paint1_linear_1_54)" stroke-width="10"/>
<path d="M14.9242 392.239L3.26401 404.827L16.6011 538.014L28.7728 544.06L58.3307 544.476L110.761 537.12L114.712 525.972L104.766 391.665L93.9534 386.387L14.9242 392.239Z" fill="#EE2B00" fill-opacity="0.45"/>
<path d="M108.236 420.935L115.911 524.58C116.631 528.435 114.302 536.857 99.2288 539.711C84.1555 542.564 48.0356 544.225 31.8598 544.7" stroke="#C7C7C7" stroke-width="10"/>
<path d="M6.78983 428.448L14.4654 532.093C14.3213 536.011 17.8656 543.999 33.1947 544.601C48.5239 545.202 84.4946 541.525 100.564 539.612" stroke="#C7C7C7" stroke-width="10"/>
<path d="M114.255 502.214L106.58 398.569C106.724 394.65 103.179 386.663 87.8501 386.061C72.521 385.459 36.5503 389.136 20.4811 391.05" stroke="#C7C7C7" stroke-width="10"/>
<path d="M12.809 509.726L5.13347 406.082C4.41378 402.227 6.74274 393.804 21.816 390.951C36.8893 388.098 73.0093 386.436 89.1851 385.962" stroke="#C7C7C7" stroke-width="10"/>
<path d="M185 379.071L172.442 390.763L175.907 524.571L187.599 531.5L217.045 534.098L269.875 530.634L274.639 519.808V385.134L264.246 379.071H185Z" fill="#EE2B00" fill-opacity="0.45"/>
<path d="M274.206 414.58V518.509C274.639 522.406 271.694 530.634 256.451 532.366C241.208 534.098 205.064 533.088 188.898 532.366" stroke="#C7C7C7" stroke-width="10"/>
<path d="M172.482 414.58V518.509C172.049 522.406 174.994 530.634 190.236 532.366C205.479 534.098 241.623 533.088 257.79 532.366" stroke="#C7C7C7" stroke-width="10"/>
<path d="M274.206 496.081V392.153C274.639 388.255 271.694 380.028 256.451 378.296C241.208 376.564 205.064 377.574 188.898 378.296" stroke="#C7C7C7" stroke-width="10"/>
<path d="M172.482 496.081V392.153C172.049 388.255 174.994 380.028 190.236 378.296C205.479 376.564 241.623 377.574 257.79 378.296" stroke="#C7C7C7" stroke-width="10"/>
<path d="M348.688 380.071L336.13 391.763L339.594 525.571L351.286 532.5L380.733 535.098L433.563 531.634L438.326 520.808V386.134L427.933 380.071H348.688Z" fill="#EE2B00" fill-opacity="0.45"/>
<path d="M437.893 415.58V519.509C438.326 523.406 435.382 531.634 420.139 533.366C404.896 535.098 368.752 534.088 352.585 533.366" stroke="#C7C7C7" stroke-width="10"/>
<path d="M336.169 415.58V519.509C335.736 523.406 338.681 531.634 353.924 533.366C369.167 535.098 405.311 534.088 421.477 533.366" stroke="#C7C7C7" stroke-width="10"/>
<path d="M437.893 497.081V393.153C438.326 389.255 435.382 381.028 420.139 379.296C404.896 377.564 368.752 378.574 352.585 379.296" stroke="#C7C7C7" stroke-width="10"/>
<path d="M336.169 497.081V393.153C335.736 389.255 338.681 381.028 353.924 379.296C369.167 377.564 405.311 378.574 421.477 379.296" stroke="#C7C7C7" stroke-width="10"/>
<path d="M517.941 386.519L504.577 397.28L498.44 530.993L509.605 538.741L538.789 543.444L591.732 543.776L597.26 533.319L606.914 398.992L596.983 392.2L517.941 386.519Z" fill="#EE2B00" fill-opacity="0.45"/>
<path d="M604.371 428.331L596.921 531.993C597.073 535.911 593.546 543.906 578.219 544.541C562.891 545.176 526.912 541.577 510.839 539.698" stroke="#C7C7C7" stroke-width="10"/>
<path d="M502.909 421.039L495.459 524.7C494.747 528.556 497.095 536.974 512.174 539.794C527.253 542.615 563.377 544.198 579.554 544.637" stroke="#C7C7C7" stroke-width="10"/>
<path d="M598.529 509.623L605.979 405.962C606.69 402.105 604.343 393.688 589.264 390.867C574.184 388.047 538.061 386.464 521.884 386.024" stroke="#C7C7C7" stroke-width="10"/>
<path d="M497.066 502.33L504.517 398.669C504.364 394.751 507.891 386.755 523.219 386.12C538.547 385.485 574.526 389.084 590.599 390.963" stroke="#C7C7C7" stroke-width="10"/>
<g filter="url(#filter1_i_1_54)">
<path d="M161.258 277.452C164.36 277.173 167.12 277.375 169.538 278.057C171.994 278.693 173.289 279.755 173.422 281.242C173.556 282.73 173.148 284.63 172.2 286.943C171.289 289.209 170.452 290.377 169.687 290.446C169.475 290.465 169.21 290.381 168.894 290.196C168.616 289.963 167.955 289.766 166.912 289.602C165.908 289.393 165.045 289.321 164.323 289.385C161.858 289.607 159.939 290.658 158.566 292.537C157.235 294.413 156.732 297.157 157.056 300.77C157.377 304.339 158.381 306.926 160.067 308.531C161.796 310.132 163.851 310.826 166.23 310.612C167.208 310.524 168.28 310.299 169.447 309.937C170.652 309.529 171.487 309.047 171.951 308.491C172.029 308.399 172.195 308.341 172.45 308.318C172.705 308.295 173.216 308.742 173.984 309.658C174.791 310.528 175.562 311.722 176.298 313.241C177.031 314.718 177.435 315.881 177.511 316.731C177.66 318.388 176.504 319.82 174.042 321.026C171.58 322.233 168.607 322.993 165.122 323.306C159.513 323.81 154.724 322.249 150.757 318.621C146.79 314.994 144.483 309.589 143.838 302.407C143.189 295.183 144.527 289.344 147.854 284.89C151.223 280.431 155.691 277.952 161.258 277.452ZM193.691 309.044L191.652 286.351L187.126 286.758C186.404 286.823 185.811 285.955 185.35 284.154C185.142 283.273 184.996 282.365 184.912 281.431C184.828 280.496 184.81 279.576 184.857 278.672C184.99 276.818 185.418 275.859 186.141 275.794L207.558 273.869C208.281 273.804 208.852 274.674 209.271 276.478C209.521 277.355 209.688 278.261 209.772 279.196C209.856 280.131 209.853 281.052 209.763 281.96C209.673 283.81 209.266 284.768 208.544 284.833L204.273 285.217L206.312 307.909L210.774 307.508C211.497 307.443 212.089 308.311 212.55 310.112C212.801 310.989 212.968 311.895 213.052 312.83C213.136 313.765 213.133 314.686 213.043 315.594C212.91 317.448 212.482 318.407 211.76 318.472L190.278 320.403C189.556 320.468 188.985 319.598 188.566 317.793C188.316 316.916 188.149 316.01 188.065 315.075C187.98 314.14 187.983 313.219 188.073 312.312C188.164 310.461 188.57 309.504 189.293 309.439L193.691 309.044ZM260.251 312.7C260.331 313.593 258.374 314.218 254.38 314.577C250.385 314.936 248.189 314.812 247.792 314.206L235.359 295.274L237.141 315.099C237.21 315.863 235.268 316.424 231.316 316.779C227.407 317.13 225.417 316.923 225.349 316.158L221.516 273.514C221.459 272.877 223.109 272.407 226.466 272.106C227.783 271.987 229.324 271.977 231.09 272.076C232.894 272.128 234.015 272.455 234.455 273.058L246.419 291.774L244.62 271.759C244.547 270.952 246.487 270.37 250.439 270.015C254.391 269.66 256.403 269.886 256.476 270.694L260.251 312.7ZM292.728 284.078C293.535 284.006 294.072 285.457 294.34 288.432C294.42 289.324 294.409 290.396 294.307 291.647C294.244 292.853 293.958 293.478 293.448 293.524L285.353 294.251L285.925 300.626L297.654 299.572C298.377 299.507 298.949 300.398 299.372 302.245C299.572 303.04 299.714 303.906 299.798 304.841C299.879 305.733 299.856 306.913 299.731 308.381C299.606 309.849 299.246 310.609 298.651 310.663L276.851 312.622C275.236 312.767 274.369 312.181 274.251 310.864L270.567 269.877C270.468 268.772 270.907 268.176 271.885 268.088L294.705 266.037C295.597 265.957 296.213 267.808 296.553 271.59C296.889 275.329 296.611 277.239 295.719 277.32L283.926 278.379L284.505 284.817L292.728 284.078ZM327.682 262.495C330.785 262.216 333.544 262.418 335.962 263.1C338.418 263.736 339.713 264.798 339.846 266.285C339.98 267.773 339.573 269.673 338.624 271.986C337.714 274.252 336.876 275.42 336.111 275.489C335.899 275.508 335.634 275.424 335.318 275.239C335.04 275.007 334.38 274.809 333.337 274.646C332.333 274.436 331.469 274.364 330.747 274.428C328.282 274.65 326.363 275.701 324.99 277.58C323.659 279.456 323.156 282.2 323.481 285.813C323.802 289.382 324.805 291.969 326.492 293.574C328.22 295.175 330.275 295.869 332.655 295.655C333.632 295.567 334.704 295.342 335.871 294.98C337.077 294.572 337.912 294.09 338.376 293.534C338.453 293.442 338.619 293.384 338.874 293.361C339.129 293.338 339.641 293.785 340.408 294.701C341.215 295.571 341.986 296.765 342.722 298.284C343.455 299.761 343.859 300.924 343.936 301.774C344.084 303.431 342.928 304.863 340.466 306.069C338.004 307.276 335.031 308.036 331.546 308.349C325.937 308.853 321.149 307.292 317.181 303.664C313.214 300.037 310.908 294.632 310.262 287.45C309.613 280.226 310.952 274.387 314.278 269.933C317.647 265.474 322.115 262.995 327.682 262.495ZM355.918 301.725L352.355 262.077C352.275 261.184 354.381 260.545 358.673 260.159C363.007 259.77 365.215 260.021 365.295 260.914L368.102 292.148L377.918 291.266C378.683 291.197 379.304 292.148 379.781 294.118C379.997 295.084 380.15 296.077 380.242 297.097C380.333 298.117 380.363 299.164 380.331 300.238C380.175 302.308 379.714 303.378 378.949 303.446L359.316 305.211C358.381 305.295 357.603 304.979 356.982 304.264C356.361 303.549 356.006 302.702 355.918 301.725ZM409.192 257.033C409.116 256.183 411.372 255.552 415.962 255.139C420.594 254.723 422.948 254.94 423.024 255.79L425.654 285.048C426.043 289.382 424.811 293.07 421.957 296.111C419.1 299.11 414.93 300.855 409.448 301.348C404.008 301.837 399.442 300.833 395.748 298.338C392.092 295.796 390.048 292.125 389.617 287.323L387.079 259.084C387.003 258.235 389.259 257.603 393.849 257.191C398.481 256.775 400.835 256.991 400.911 257.841L403.495 286.589C403.571 287.439 404.079 288.079 405.017 288.509C405.998 288.935 406.998 289.102 408.018 289.01C409.038 288.919 409.93 288.603 410.696 288.063C411.504 287.519 411.866 286.78 411.782 285.845L409.192 257.033ZM468.244 262.071C468.641 266.491 467.03 270.02 463.412 272.658C465.563 273.236 467.424 274.397 468.994 276.141C470.564 277.884 471.504 280.477 471.814 283.919C472.119 287.319 471.087 290.132 468.717 292.359C466.389 294.581 462.867 295.904 458.15 296.328L443.106 297.68C442.384 297.745 441.768 297.565 441.258 297.14C440.745 296.672 440.452 296.034 440.38 295.227L436.713 254.431C436.671 253.964 436.708 253.66 436.824 253.521C436.979 253.336 437.29 253.222 437.758 253.18L452.291 251.874C462.235 250.981 467.552 254.38 468.244 262.071ZM449.777 262.51L450.527 270.86L450.846 270.832C454.926 270.465 456.843 268.922 456.599 266.202C456.465 264.715 455.964 263.668 455.095 263.06C454.269 262.449 452.943 262.226 451.115 262.39L449.777 262.51ZM451.203 278.382L451.948 286.669L453.095 286.566C454.923 286.401 456.231 285.941 457.02 285.185C457.808 284.428 458.136 283.307 458.002 281.819C457.869 280.332 457.371 279.327 456.51 278.805C455.692 278.279 454.369 278.098 452.542 278.262L451.203 278.382Z" fill="#AB5846"/>
</g>
<defs>
<filter id="filter0_i_1_54" x="38.6209" y="-3.34439" width="541" height="579.344" filterUnits="userSpaceOnUse" color-interpolation-filters="sRGB">
<feFlood flood-opacity="0" result="BackgroundImageFix"/>
<feBlend mode="normal" in="SourceGraphic" in2="BackgroundImageFix" result="shape"/>
<feColorMatrix in="SourceAlpha" type="matrix" values="0 0 0 0 0 0 0 0 0 0 0 0 0 0 0 0 0 0 127 0" result="hardAlpha"/>
<feOffset dx="65" dy="-25"/>
<feGaussianBlur stdDeviation="2"/>
<feComposite in2="hardAlpha" operator="arithmetic" k2="-1" k3="1"/>
<feColorMatrix type="matrix" values="0 0 0 0 0 0 0 0 0 0 0 0 0 0 0 0 0 0 0.25 0"/>
<feBlend mode="normal" in2="shape" result="effect1_innerShadow_1_54"/>
</filter>
<filter id="filter1_i_1_54" x="141.753" y="249.817" width="331.115" height="75.2193" filterUnits="userSpaceOnUse" color-interpolation-filters="sRGB">
<feFlood flood-opacity="0" result="BackgroundImageFix"/>
<feBlend mode="normal" in="SourceGraphic" in2="BackgroundImageFix" result="shape"/>
<feColorMatrix in="SourceAlpha" type="matrix" values="0 0 0 0 0 0 0 0 0 0 0 0 0 0 0 0 0 0 127 0" result="hardAlpha"/>
<feOffset dx="5" dy="7"/>
<feComposite in2="hardAlpha" operator="arithmetic" k2="-1" k3="1"/>
<feColorMatrix type="matrix" values="0 0 0 0 0 0 0 0 0 0 0 0 0 0 0 0 0 0 0.32 0"/>
<feBlend mode="normal" in2="shape" result="effect1_innerShadow_1_54"/>
</filter>
<linearGradient id="paint0_linear_1_54" x1="292.5" y1="1" x2="298.141" y2="575.999" gradientUnits="userSpaceOnUse">
<stop offset="0.0001" stop-color="#007FB2"/>
<stop offset="0.43125" stop-color="#264653"/>
<stop offset="1" stop-color="#006188" stop-opacity="0.15"/>
</linearGradient>
<linearGradient id="paint1_linear_1_54" x1="322.706" y1="235.777" x2="322.706" y2="347.628" gradientUnits="userSpaceOnUse">
<stop stop-color="#C79ED7"/>
<stop offset="1" stop-color="#2A0A37" stop-opacity="0.58"/>
</linearGradient>
</defs>
</svg>
